<?xml version="1.0" encoding="iso-8859-1"?>
<!-- Generator: Adobe Illustrator 19.0.0, SVG Export Plug-In . SVG Version: 6.00 Build 0)  -->
<svg version="1.1" id="Capa_1" xmlns="http://www.w3.org/2000/svg" xmlns:xlink="http://www.w3.org/1999/xlink" x="0px" y="0px"
	 viewBox="0 0 480 480" style="enable-background:new 0 0 480 480;" xml:space="preserve">
<g>
	<g>
		<path d="M240,0C107.452,0,0,107.452,0,240s107.452,240,240,240s240-107.452,240-240C479.85,107.514,372.486,0.15,240,0z M240,464
			C116.288,464,16,363.712,16,240S116.288,16,240,16s224,100.288,224,224C463.859,363.653,363.653,463.859,240,464z"/>
	</g>
</g>
<g>
	<g>
		<path d="M48,240H32c-0.119,55.182,21.844,108.118,60.992,147.008l11.312-11.312C68.166,339.799,47.892,290.936,48,240z"/>
	</g>
</g>
<g>
	<g>
		<path d="M240,176c-35.346,0-64,28.654-64,64c0,35.346,28.654,64,64,64c35.346,0,64-28.654,64-64
			C303.96,204.67,275.33,176.04,240,176z M240,288c-26.51,0-48-21.49-48-48c0-26.51,21.49-48,48-48c26.51,0,48,21.49,48,48
			C287.974,266.499,266.499,287.974,240,288z"/>
	</g>
</g>
<g>
	<g>
		<path d="M240,200c-22.091,0-40,17.909-40,40s17.909,40,40,40c22.091,0,40-17.909,40-40C279.974,217.92,262.08,200.026,240,200z
			 M240,264c-13.255,0-24-10.745-24-24s10.745-24,24-24s24,10.745,24,24S253.255,264,240,264z"/>
	</g>
</g>
<g>
</g>
<g>
</g>
<g>
</g>
<g>
</g>
<g>
</g>
<g>
</g>
<g>
</g>
<g>
</g>
<g>
</g>
<g>
</g>
<g>
</g>
<g>
</g>
<g>
</g>
<g>
</g>
<g>
</g>
</svg>
