<svg id="Layer_5" enable-background="new 0 0 64 64" height="512" viewBox="0 0 64 64" width="512" xmlns="http://www.w3.org/2000/svg"><g><path d="m55 47c-2.206 0-4 1.794-4 4s1.794 4 4 4 4-1.794 4-4-1.794-4-4-4zm0 6c-1.103 0-2-.897-2-2s.897-2 2-2 2 .897 2 2-.897 2-2 2z"/><path d="m46 49c-1.654 0-3 1.346-3 3s1.346 3 3 3 3-1.346 3-3-1.346-3-3-3zm0 4c-.551 0-1-.449-1-1s.449-1 1-1 1 .449 1 1-.449 1-1 1z"/><path d="m38 49c-1.654 0-3 1.346-3 3s1.346 3 3 3 3-1.346 3-3-1.346-3-3-3zm0 4c-.551 0-1-.449-1-1s.449-1 1-1 1 .449 1 1-.449 1-1 1z"/><path d="m13 25h-8v6h8zm-2 4h-4v-2h4z"/><path d="m23 25h-8v6h8zm-2 4h-4v-2h4z"/><path d="m9 33c-2.206 0-4 1.794-4 4s1.794 4 4 4 4-1.794 4-4-1.794-4-4-4zm0 6c-1.103 0-2-.897-2-2s.897-2 2-2 2 .897 2 2-.897 2-2 2z"/><path d="m23 37c0-2.206-1.794-4-4-4s-4 1.794-4 4 1.794 4 4 4 4-1.794 4-4zm-4 2c-1.103 0-2-.897-2-2s.897-2 2-2 2 .897 2 2-.897 2-2 2z"/><path d="m9 43h-2v8h-2v2h2v2h2v-2h2v-2h-2z"/><path d="m17 43h-2v2h-2v2h2v8h2v-8h2v-2h-2z"/><path d="m25 43h-2v6h-2v2h2v4h2v-4h2v-2h-2z"/><path d="m42 19c0 1.654 1.346 3 3 3s3-1.346 3-3-1.346-3-3-3-3 1.346-3 3zm4 0c0 .551-.449 1-1 1s-1-.449-1-1 .449-1 1-1 1 .449 1 1z"/><path d="m63 19c0-9.925-8.075-18-18-18s-18 8.075-18 18c0 .677.045 1.342.118 2h-21.118c-2.757 0-5 2.243-5 5v32c0 2.757 2.243 5 5 5h52c2.757 0 5-2.243 5-5v-32c0-.84-.217-1.665-.619-2.398.391-1.472.619-3.009.619-4.602zm-18 16c-2.505 0-4.868-.595-6.981-1.626l5.229-7.605c.561.145 1.146.231 1.752.231 3.86 0 7-3.14 7-7 0-.606-.086-1.191-.231-1.753l7.605-5.229c1.031 2.114 1.626 4.477 1.626 6.982 0 8.822-7.178 16-16 16zm4.184-21.598c-.178-.133-.362-.258-.552-.374l5.099-7.418c.648.424 1.258.898 1.836 1.408zm.816 5.598c0 2.757-2.243 5-5 5s-5-2.243-5-5 2.243-5 5-5 5 2.243 5 5zm-15.568 11.982 6.383-6.383c.178.133.362.258.552.374l-5.099 7.418c-.648-.425-1.257-.899-1.836-1.409zm4.97-7.798-6.383 6.383c-.511-.578-.984-1.188-1.408-1.836l7.418-5.099c.115.191.239.375.373.552zm-10.04 4.695c3.101 5.439 8.942 9.121 15.638 9.121 4.576 0 8.746-1.731 11.925-4.553-.726 7.042-6.694 12.553-13.925 12.553-7.72 0-14-6.28-14-14 0-1.062.13-2.103.362-3.121zm29.028-17.611-7.418 5.099c-.116-.19-.241-.374-.374-.552l6.383-6.383c.511.579.985 1.188 1.409 1.836zm-13.39-7.268c2.505 0 4.868.595 6.981 1.626l-5.229 7.605c-.561-.145-1.146-.231-1.752-.231-3.86 0-7 3.14-7 7 0 .606.086 1.191.231 1.753l-7.605 5.229c-1.031-2.114-1.626-4.477-1.626-6.982 0-8.822 7.178-16 16-16zm13 58h-52c-1.302 0-2.402-.839-2.816-2h57.631c-.413 1.161-1.513 2-2.815 2zm3-4h-58v-31c0-1.654 1.346-3 3-3h21.464c.169.743.391 1.465.649 2.17-.729 1.859-1.113 3.815-1.113 5.83 0 8.822 7.178 16 16 16s16-7.178 16-16c0-.226-.016-.448-.031-.67.782-.962 1.458-2.01 2.031-3.121z"/><path d="m52.257 38.637-1.542-1.273c-1.909 2.31-4.721 3.636-7.715 3.636v2c3.593 0 6.967-1.59 9.257-4.363z"/></g></svg>