<?xml version="1.0" encoding="iso-8859-1"?>
<!-- Generator: Adobe Illustrator 19.0.0, SVG Export Plug-In . SVG Version: 6.00 Build 0)  -->
<svg version="1.1" id="Capa_1" xmlns="http://www.w3.org/2000/svg" xmlns:xlink="http://www.w3.org/1999/xlink" x="0px" y="0px"
	 viewBox="0 0 511.999 511.999" style="enable-background:new 0 0 511.999 511.999;" xml:space="preserve">
<g>
	<g>
		<path d="M90.889,342.139c-0.13-0.64-0.32-1.27-0.57-1.87c-0.25-0.61-0.56-1.19-0.92-1.73c-0.36-0.55-0.78-1.06-1.24-1.52
			c-0.46-0.46-0.98-0.88-1.52-1.24c-0.54-0.36-1.13-0.67-1.73-0.92c-0.6-0.25-1.23-0.44-1.87-0.57c-1.29-0.26-2.62-0.26-3.91,0
			c-0.64,0.13-1.27,0.32-1.87,0.57c-0.6,0.25-1.18,0.56-1.72,0.92c-0.55,0.36-1.06,0.78-1.52,1.24c-0.47,0.46-0.88,0.97-1.25,1.52
			c-0.36,0.54-0.67,1.12-0.92,1.73c-0.25,0.6-0.44,1.23-0.57,1.87s-0.19,1.3-0.19,1.95s0.06,1.31,0.19,1.95
			c0.13,0.64,0.32,1.27,0.57,1.87c0.25,0.61,0.56,1.19,0.92,1.73c0.37,0.55,0.78,1.06,1.25,1.52c0.46,0.46,0.97,0.88,1.52,1.24
			c0.54,0.36,1.12,0.67,1.72,0.92c0.6,0.25,1.23,0.45,1.87,0.57c0.65,0.13,1.3,0.2,1.96,0.2c0.65,0,1.31-0.07,1.95-0.2
			c0.64-0.12,1.27-0.32,1.87-0.57s1.19-0.56,1.73-0.92c0.54-0.36,1.06-0.78,1.52-1.24c1.86-1.86,2.93-4.44,2.93-7.07
			C91.089,343.439,91.019,342.779,90.889,342.139z"/>
	</g>
</g>
<g>
	<g>
		<path d="M81.085,284.28c-5.523,0-10,4.477-10,10v12.806c0,5.523,4.477,10,10,10s10-4.477,10-10V294.28
			C91.085,288.757,86.608,284.28,81.085,284.28z"/>
	</g>
</g>
<g>
	<g>
		<path d="M148.991,284.28c-5.523,0-10,4.477-10,10v49.809c0,5.523,4.477,10,10,10c5.523,0,10-4.477,10-10V294.28
			C158.991,288.757,154.514,284.28,148.991,284.28z"/>
	</g>
</g>
<g>
	<g>
		<path d="M115.038,298.683c-5.523,0-10,4.477-10,10v12.806c0,5.523,4.477,10,10,10s10-4.477,10-10v-12.806
			C125.038,303.16,120.561,298.683,115.038,298.683z"/>
	</g>
</g>
<g>
	<g>
		<path d="M389.249,347.019c-0.46-0.46-0.97-0.88-1.52-1.24c-0.54-0.36-1.12-0.67-1.729-0.92c-0.601-0.25-1.23-0.45-1.87-0.57
			c-1.29-0.26-2.62-0.26-3.9,0c-0.64,0.12-1.27,0.32-1.88,0.57c-0.6,0.25-1.18,0.56-1.72,0.92c-0.55,0.36-1.061,0.78-1.521,1.24
			c-0.46,0.46-0.88,0.97-1.25,1.52c-0.359,0.54-0.67,1.12-0.92,1.73c-0.239,0.6-0.439,1.23-0.56,1.87c-0.13,0.64-0.2,1.3-0.2,1.95
			s0.07,1.31,0.2,1.95c0.12,0.64,0.32,1.27,0.56,1.88c0.25,0.6,0.561,1.18,0.92,1.72c0.37,0.55,0.79,1.06,1.25,1.52
			c0.46,0.46,0.971,0.88,1.521,1.24c0.54,0.37,1.12,0.67,1.72,0.92c0.61,0.25,1.24,0.45,1.88,0.58c0.641,0.13,1.301,0.19,1.95,0.19
			c0.65,0,1.311-0.06,1.95-0.19c0.639-0.13,1.27-0.33,1.87-0.58c0.609-0.25,1.189-0.55,1.729-0.92c0.551-0.36,1.061-0.78,1.521-1.24
			c0.46-0.46,0.88-0.97,1.24-1.52c0.359-0.54,0.67-1.12,0.92-1.72c0.25-0.61,0.439-1.24,0.569-1.88s0.2-1.3,0.2-1.95
			C392.179,351.459,391.109,348.879,389.249,347.019z"/>
	</g>
</g>
<g>
	<g>
		<path d="M382.179,284.28c-5.522,0-10,4.477-10,10v22.807c0,5.523,4.478,10,10,10c5.522,0,10-4.477,10-10V294.28
			C392.179,288.757,387.701,284.28,382.179,284.28z"/>
	</g>
</g>
<g>
	<g>
		<path d="M450.085,284.28c-5.522,0-10,4.477-10,10v69.811c0,5.523,4.478,10,10,10c5.522,0,10-4.477,10-10V294.28
			C460.085,288.757,455.607,284.28,450.085,284.28z"/>
	</g>
</g>
<g>
	<g>
		<path d="M416.132,298.683c-5.522,0-10,4.477-10,10v32.808c0,5.523,4.478,10,10,10c5.522,0,10-4.477,10-10v-32.808
			C426.132,303.16,421.654,298.683,416.132,298.683z"/>
	</g>
</g>
<g>
	<g>
		<path d="M349.039,219.739c-0.13-0.64-0.32-1.27-0.57-1.87c-0.25-0.61-0.56-1.19-0.92-1.73c-0.36-0.55-0.78-1.06-1.24-1.52
			c-0.46-0.46-0.97-0.88-1.52-1.25c-0.54-0.35-1.12-0.66-1.73-0.91c-0.6-0.25-1.229-0.45-1.87-0.57c-1.29-0.26-2.62-0.26-3.909,0
			c-0.631,0.12-1.261,0.32-1.87,0.57c-0.601,0.25-1.181,0.56-1.721,0.91c-0.55,0.37-1.06,0.79-1.52,1.25
			c-0.46,0.46-0.88,0.97-1.25,1.52c-0.36,0.54-0.67,1.12-0.92,1.73c-0.25,0.6-0.44,1.23-0.57,1.87c-0.13,0.64-0.189,1.3-0.189,1.95
			c0,0.65,0.06,1.31,0.189,1.95c0.13,0.64,0.32,1.27,0.57,1.87c0.25,0.61,0.56,1.19,0.92,1.73c0.37,0.55,0.79,1.06,1.25,1.52
			c0.46,0.46,0.97,0.88,1.52,1.24c0.54,0.36,1.12,0.67,1.721,0.92c0.609,0.25,1.239,0.45,1.87,0.57c0.649,0.13,1.31,0.2,1.96,0.2
			c0.649,0,1.31-0.07,1.949-0.2c0.641-0.12,1.271-0.32,1.87-0.57c0.61-0.25,1.19-0.56,1.73-0.92c0.55-0.36,1.06-0.78,1.52-1.24
			c0.46-0.46,0.88-0.97,1.24-1.52c0.36-0.54,0.67-1.12,0.92-1.73c0.25-0.6,0.44-1.23,0.57-1.87s0.2-1.3,0.2-1.95
			C349.239,221.039,349.169,220.379,349.039,219.739z"/>
	</g>
</g>
<g>
	<g>
		<path d="M501.675,189.203c-11.728-30.07-38.89-51.439-70.888-55.768c-0.001,0-0.002,0-0.003,0
			c-15.88-2.144-33.726-3.323-53.12-3.513l-10.046-16.405l-32.382-52.882c-12.148-19.831-34.14-32.165-57.392-32.188
			c-31.098-0.03-83.303,0.007-155.167,0.11C98.693,28.591,76.356,41.532,64.382,62.33l-47.533,82.597
			c-0.872,1.515-1.332,3.232-1.333,4.98l-0.045,61.782h-1.206c-5.523,0-10,4.477-10,10c0,5.523,4.477,10,10,10h1.193l-0.012,18.847
			c-0.002,2.653,1.051,5.198,2.927,7.075c1.875,1.876,4.42,2.931,7.073,2.931h40.319c8.914,16.568,26.418,27.858,46.512,27.858
			c20.095,0,37.599-11.29,46.513-27.858h210.83c8.914,16.568,26.417,27.858,46.512,27.858c20.095,0,37.599-11.29,46.512-27.858
			h35.089c5.522,0,10-4.477,10-10V221.44C507.733,210.356,505.695,199.509,501.675,189.203z M331.928,93.529l22.036,35.984h-35.631
			l-19.708-35.984H331.928z M35.452,240.542l0.006-8.854H59.65c-0.014,0.194-0.026,0.388-0.038,0.583
			c-0.017,0.273-0.04,0.544-0.053,0.818c-0.04,0.838-0.064,1.681-0.064,2.529c0,0.868,0.024,1.733,0.066,2.595
			c0.015,0.3,0.043,0.596,0.062,0.894c0.032,0.479,0.056,0.959,0.1,1.435H35.452z M70.356,203.598
			c-0.174,0.227-0.349,0.452-0.519,0.681c-0.345,0.466-0.68,0.941-1.01,1.419c-0.12,0.173-0.245,0.343-0.362,0.518
			c-0.442,0.656-0.87,1.322-1.282,1.998c-0.086,0.141-0.166,0.287-0.25,0.429c-0.321,0.538-0.636,1.08-0.938,1.63
			c-0.136,0.247-0.264,0.498-0.396,0.748c-0.118,0.223-0.239,0.443-0.354,0.668H35.471l0.006-8.853h35.46
			C70.738,203.086,70.55,203.345,70.356,203.598z M145.019,237.2c-0.008,0.177-0.024,0.354-0.035,0.531
			c-0.022,0.346-0.046,0.691-0.079,1.033c-0.021,0.215-0.047,0.429-0.072,0.643c-0.035,0.299-0.071,0.598-0.114,0.895
			c-0.034,0.235-0.072,0.47-0.111,0.704c-0.045,0.269-0.093,0.536-0.144,0.802c-0.049,0.254-0.1,0.507-0.154,0.759
			c-0.051,0.235-0.106,0.469-0.162,0.702c-0.067,0.277-0.134,0.553-0.208,0.828c-0.051,0.192-0.108,0.382-0.163,0.572
			c-0.089,0.308-0.177,0.617-0.276,0.923c-0.041,0.127-0.086,0.253-0.129,0.379c-0.12,0.358-0.24,0.716-0.373,1.071
			c0,0.001-0.001,0.003-0.001,0.004c-4.647,12.459-16.663,21.355-30.721,21.355c-14.056,0-26.071-8.894-30.721-21.349
			c-0.001-0.003-0.002-0.006-0.003-0.008c-0.134-0.358-0.256-0.72-0.377-1.082c-0.041-0.123-0.085-0.244-0.124-0.367
			c-0.097-0.303-0.185-0.609-0.273-0.914c-0.056-0.195-0.114-0.39-0.167-0.587c-0.072-0.269-0.138-0.539-0.203-0.81
			c-0.058-0.241-0.115-0.482-0.168-0.724c-0.053-0.245-0.102-0.491-0.15-0.737c-0.053-0.274-0.102-0.55-0.148-0.827
			c-0.038-0.228-0.074-0.455-0.107-0.684c-0.044-0.303-0.081-0.609-0.117-0.915c-0.024-0.209-0.05-0.418-0.07-0.628
			c-0.033-0.346-0.057-0.695-0.08-1.044c-0.011-0.175-0.027-0.349-0.035-0.524c-0.025-0.525-0.04-1.053-0.04-1.585
			c0-18.076,14.706-32.782,32.782-32.782c18.077,0,32.783,14.706,32.783,32.782C145.059,236.147,145.044,236.675,145.019,237.2z
			 M374.23,203.575c-0.182,0.238-0.366,0.473-0.544,0.714c-0.334,0.451-0.657,0.91-0.976,1.372c-0.13,0.188-0.266,0.373-0.394,0.563
			c-0.438,0.651-0.863,1.312-1.272,1.983c-0.097,0.159-0.187,0.323-0.282,0.483c-0.31,0.521-0.615,1.044-0.907,1.576
			c-0.139,0.254-0.272,0.512-0.407,0.768c-0.238,0.45-0.472,0.902-0.697,1.359c-0.138,0.281-0.273,0.565-0.406,0.849
			c-0.21,0.447-0.414,0.897-0.612,1.351c-0.125,0.288-0.25,0.575-0.371,0.866c-0.198,0.477-0.386,0.958-0.57,1.442
			c-0.102,0.269-0.208,0.536-0.307,0.808c-0.218,0.602-0.422,1.211-0.618,1.822c-0.05,0.156-0.106,0.308-0.154,0.464
			c-0.238,0.768-0.458,1.544-0.662,2.326c-0.059,0.227-0.109,0.457-0.165,0.685c-0.138,0.562-0.272,1.125-0.392,1.694
			c-0.063,0.298-0.118,0.599-0.176,0.899c-0.098,0.51-0.192,1.021-0.275,1.536c-0.052,0.317-0.099,0.636-0.145,0.955
			c-0.074,0.514-0.139,1.031-0.198,1.55c-0.036,0.313-0.072,0.626-0.102,0.941c-0.053,0.561-0.093,1.125-0.129,1.691
			c-0.017,0.273-0.04,0.544-0.053,0.818c-0.04,0.838-0.064,1.681-0.064,2.529c0,0.867,0.024,1.732,0.066,2.594
			c0.015,0.313,0.044,0.622,0.065,0.933c0.028,0.465,0.052,0.932,0.095,1.396H164.832c0.044-0.476,0.068-0.955,0.1-1.433
			c0.02-0.299,0.048-0.595,0.062-0.896c0.042-0.863,0.066-1.727,0.066-2.595c0-0.848-0.024-1.69-0.064-2.529
			c-0.013-0.274-0.036-0.545-0.053-0.818c-0.012-0.194-0.023-0.389-0.038-0.583h137.329c5.522,0,10-4.477,10-10
			c0-5.523-4.478-10-10-10H159.312c-0.115-0.225-0.236-0.445-0.354-0.668c-0.132-0.249-0.261-0.501-0.396-0.748
			c-0.302-0.55-0.617-1.092-0.938-1.63c-0.085-0.142-0.164-0.288-0.25-0.429c-0.412-0.676-0.841-1.342-1.282-1.998
			c-0.118-0.175-0.242-0.344-0.362-0.517c-0.331-0.479-0.666-0.954-1.012-1.421c-0.169-0.228-0.344-0.452-0.516-0.677
			c-0.195-0.255-0.384-0.514-0.583-0.765h221.174C374.6,203.078,374.418,203.329,374.23,203.575z M448.875,237.204
			c-0.008,0.175-0.024,0.349-0.035,0.524c-0.022,0.349-0.046,0.698-0.08,1.044c-0.02,0.21-0.046,0.419-0.07,0.628
			c-0.035,0.306-0.073,0.611-0.117,0.915c-0.033,0.229-0.07,0.457-0.107,0.684c-0.046,0.276-0.095,0.551-0.148,0.824
			c-0.048,0.247-0.097,0.495-0.151,0.741c-0.052,0.242-0.109,0.482-0.167,0.722c-0.065,0.271-0.131,0.541-0.203,0.811
			c-0.053,0.197-0.111,0.391-0.167,0.587c-0.088,0.305-0.176,0.611-0.273,0.914c-0.04,0.123-0.083,0.244-0.124,0.367
			c-0.121,0.362-0.243,0.724-0.377,1.082c-0.001,0.003-0.001,0.006-0.003,0.008c-4.651,12.452-16.665,21.346-30.721,21.346
			c-14.056,0-26.071-8.894-30.721-21.349c-0.001-0.003-0.002-0.006-0.003-0.008c-0.134-0.358-0.256-0.72-0.377-1.082
			c-0.041-0.123-0.085-0.244-0.124-0.367c-0.097-0.304-0.185-0.61-0.273-0.915c-0.056-0.195-0.114-0.389-0.167-0.585
			c-0.072-0.269-0.138-0.54-0.203-0.811c-0.058-0.24-0.115-0.48-0.167-0.722c-0.053-0.246-0.103-0.493-0.151-0.74
			c-0.052-0.273-0.102-0.548-0.147-0.824c-0.038-0.228-0.075-0.457-0.108-0.686c-0.043-0.302-0.081-0.607-0.116-0.912
			c-0.024-0.21-0.05-0.42-0.07-0.63c-0.033-0.345-0.057-0.693-0.079-1.042c-0.011-0.175-0.027-0.35-0.035-0.525
			c-0.025-0.525-0.04-1.053-0.04-1.584c0-18.076,14.706-32.782,32.782-32.782c18.076,0,32.782,14.706,32.782,32.782
			C448.915,236.15,448.9,236.678,448.875,237.204z M35.491,182.836l0.023-30.246l46.202-80.283
			c8.42-14.625,24.127-23.727,40.991-23.751c71.847-0.103,124.035-0.14,155.119-0.11c16.35,0.017,31.813,8.69,40.355,22.634
			l1.5,2.449h-37.935c-3.532,0-6.803,1.864-8.604,4.903c-1.801,3.039-1.864,6.803-0.167,9.901l30.662,55.984
			c1.755,3.204,5.117,5.196,8.771,5.196h56.934c0.869,0.244,1.774,0.38,2.7,0.38c20.684,0,39.547,1.131,56.066,3.361
			c19.628,2.657,36.908,13.585,47.766,29.582H35.491z M468.685,240.542c0.043-0.464,0.067-0.932,0.098-1.398
			c0.021-0.311,0.05-0.62,0.065-0.933c0.042-0.862,0.066-1.726,0.066-2.594c0-0.848-0.024-1.69-0.064-2.529
			c-0.013-0.274-0.036-0.545-0.053-0.818c-0.036-0.566-0.076-1.13-0.129-1.691c-0.03-0.315-0.066-0.627-0.102-0.941
			c-0.059-0.519-0.124-1.036-0.198-1.55c-0.046-0.318-0.093-0.636-0.145-0.952c-0.084-0.516-0.177-1.029-0.276-1.54
			c-0.058-0.299-0.113-0.599-0.176-0.897c-0.12-0.569-0.254-1.132-0.392-1.694c-0.056-0.228-0.106-0.458-0.165-0.685
			c-0.204-0.782-0.424-1.558-0.662-2.326c-0.048-0.156-0.104-0.309-0.154-0.464c-0.196-0.612-0.4-1.22-0.618-1.822
			c-0.098-0.271-0.204-0.538-0.307-0.808c-0.184-0.484-0.372-0.965-0.57-1.442c-0.12-0.29-0.245-0.578-0.371-0.866
			c-0.198-0.454-0.401-0.904-0.612-1.351c-0.134-0.284-0.268-0.568-0.406-0.849c-0.225-0.458-0.46-0.911-0.698-1.361
			c-0.135-0.255-0.267-0.512-0.406-0.765c-0.293-0.533-0.599-1.058-0.909-1.58c-0.095-0.16-0.184-0.323-0.281-0.481
			c-0.41-0.671-0.834-1.332-1.273-1.983c-0.128-0.19-0.264-0.375-0.394-0.563c-0.319-0.462-0.642-0.921-0.976-1.372
			c-0.178-0.241-0.362-0.477-0.544-0.714c-0.188-0.246-0.371-0.497-0.563-0.74h27.704c1.699,6.037,2.558,12.27,2.558,18.604v19.105
			H468.685z"/>
	</g>
</g>
<g>
	<g>
		<path d="M276.824,134.71l-30.669-55.99c-1.755-3.204-5.118-5.196-8.771-5.196H119.273c-3.412,0-6.589,1.74-8.427,4.615
			l-35.777,55.989c-1.967,3.079-2.099,6.984-0.344,10.188c1.755,3.204,5.117,5.196,8.771,5.196h184.558
			c3.532,0.002,6.802-1.862,8.603-4.901C278.458,141.571,278.521,137.808,276.824,134.71z M101.753,129.514l22.997-35.989h106.71
			l19.714,35.989H101.753z"/>
	</g>
</g>
<g>
	<g>
		<path d="M472.837,432.39c-15.044-32.563-48.096-53.993-84.335-53.993c-17.938,0-35.427,5.214-50.361,14.863
			c-12.316-19.425-33.694-31.434-57.352-31.434c-20.275,0-39.049,8.833-51.879,24.033c-9.54-4.904-20.087-7.462-30.978-7.462
			c-9.001,0-17.926,1.799-26.189,5.246c-15.465-13.943-35.73-21.817-56.667-21.817c-42.131,0-77.354,30.857-83.587,71.658
			C13.479,437.819,0,454.138,0,473.373c0,0.124,0.002,0.248,0.006,0.375c0.099,5.438,4.538,9.815,9.999,9.815h491.989
			c5.433,0,9.866-4.336,9.997-9.757c0.005-0.144,0.008-0.288,0.008-0.433C511.998,451.376,494.596,433.367,472.837,432.39z
			 M22.452,463.564L22.452,463.564c3.5-6.569,10.388-11.104,18.294-11.206c5.266-0.068,9.576-4.208,9.857-9.466
			c1.828-34.243,30.147-61.066,64.473-61.066c17.895,0,35.15,7.538,47.342,20.681c3.134,3.378,8.172,4.178,12.199,1.935
			c7.097-3.954,15.159-6.044,23.315-6.044c10.038,0,19.66,3.079,27.826,8.903c2.247,1.603,5.056,2.205,7.76,1.667
			c2.706-0.539,5.069-2.171,6.53-4.512c8.847-14.17,24.077-22.629,40.742-22.629c19.744,0,37.24,11.854,44.575,30.199
			c1.197,2.995,3.766,5.228,6.897,5.999c3.129,0.769,6.441-0.017,8.893-2.116c13.185-11.292,29.999-17.51,47.348-17.51
			c30.277,0,57.72,19.065,68.286,47.441c1.457,3.914,5.194,6.51,9.371,6.51h4.815c8.052,0,15.061,4.55,18.591,11.214H22.452z"/>
	</g>
</g>
<g>
</g>
<g>
</g>
<g>
</g>
<g>
</g>
<g>
</g>
<g>
</g>
<g>
</g>
<g>
</g>
<g>
</g>
<g>
</g>
<g>
</g>
<g>
</g>
<g>
</g>
<g>
</g>
<g>
</g>
</svg>
