<svg id="_x31__px" enable-background="new 0 0 24 24" height="512" viewBox="0 0 24 24" width="512" xmlns="http://www.w3.org/2000/svg"><path d="m22.5 19h-21c-.827 0-1.5-.673-1.5-1.5v-14c0-.827.673-1.5 1.5-1.5h21c.827 0 1.5.673 1.5 1.5v14c0 .827-.673 1.5-1.5 1.5zm-21-16c-.275 0-.5.224-.5.5v14c0 .276.225.5.5.5h21c.275 0 .5-.224.5-.5v-14c0-.276-.225-.5-.5-.5z"/><path d="m15.5 22h-7c-.202 0-.385-.122-.462-.309s-.034-.402.108-.545c1.316-1.316 1.334-2.59 1.334-2.644.001-.275.223-.5.497-.501h.003c.273 0 .496.218.5.492.001.058.003 1.195-.91 2.506h4.857c-.915-1.308-.928-2.442-.928-2.5 0-.276.224-.5.5-.5.275 0 .498.222.5.497.001.063.04 1.336 1.354 2.649.143.143.186.358.108.545s-.259.31-.461.31zm-1-3.5h.01z"/><path d="m23.5 16h-23c-.276 0-.5-.224-.5-.5s.224-.5.5-.5h23c.276 0 .5.224.5.5s-.224.5-.5.5z"/><path d="m7 9c-1.103 0-2-.897-2-2s.897-2 2-2 2 .897 2 2-.897 2-2 2zm0-3c-.552 0-1 .449-1 1s.448 1 1 1 1-.449 1-1-.448-1-1-1z"/><path d="m10.5 14c-.276 0-.5-.224-.5-.5v-1c0-.827-.673-1.5-1.5-1.5h-3c-.827 0-1.5.673-1.5 1.5v1c0 .276-.224.5-.5.5s-.5-.224-.5-.5v-1c0-1.378 1.121-2.5 2.5-2.5h3c1.379 0 2.5 1.122 2.5 2.5v1c0 .276-.224.5-.5.5z"/><path d="m17 9c-1.103 0-2-.897-2-2s.897-2 2-2 2 .897 2 2-.897 2-2 2zm0-3c-.552 0-1 .449-1 1s.448 1 1 1 1-.449 1-1-.448-1-1-1z"/><path d="m20.5 14c-.276 0-.5-.224-.5-.5v-1c0-.827-.673-1.5-1.5-1.5h-3c-.827 0-1.5.673-1.5 1.5v1c0 .276-.224.5-.5.5s-.5-.224-.5-.5v-1c0-1.378 1.121-2.5 2.5-2.5h3c1.379 0 2.5 1.122 2.5 2.5v1c0 .276-.224.5-.5.5z"/></svg>