<svg height="512" viewBox="0 0 48 60" width="512" xmlns="http://www.w3.org/2000/svg"><g id="005---Teleportation"><path id="Shape" d="m2 60h44c1.1045695 0 2-.8954305 2-2 0-3.8659932-3.1340068-7-7-7h-.65l-3.9-3.12c-.6956986-.5583099-1.5580562-.8680547-2.45-.88h-5.18c.26-.74.18.43.18-17h5v14c0 .5522847.4477153 1 1 1s1-.4477153 1-1v-14c1.6568542 0 3-1.3431458 3-3s-1.3431458-3-3-3v-8c0-.5522847-.4477153-1-1-1s-1 .4477153-1 1v8h-7c1.7217216-1.2912912 2.4239867-3.5394281 1.7434165-5.5811388s-2.5912645-3.4188612-4.7434165-3.4188612-4.0628463 1.3771505-4.7434165 3.4188612.0216949 4.2898476 1.7434165 5.5811388h-7v-8c0-.5522847-.4477153-1-1-1s-1 .4477153-1 1v8c-1.6568542 0-3 1.3431458-3 3s1.3431458 3 3 3v14c0 .5522847.4477153 1 1 1s1-.4477153 1-1v-14h5c0 17.43-.08 16.27.18 17h-5.13c-.9091229.000709-1.7908842.311089-2.5.88l-3.9 3.12h-.65c-3.86599325 0-7 3.1340068-7 7 0 .530433.21071368 1.0391408.58578644 1.4142136.37507276.3750727.88378058.5857864 1.41421356.5857864zm22-43c1.6568542 0 3 1.3431458 3 3s-1.3431458 3-3 3-3-1.3431458-3-3 1.3431458-3 3-3zm-12 11c-.5522847 0-1-.4477153-1-1s.4477153-1 1-1c10.08 0 9.63.11 10-.25 1.1142733-1.0027842 2.8057267-1.0027842 3.92 0 .4.35-.09.25 10 .25.5522847 0 1 .4477153 1 1s-.4477153 1-1 1h-7.92c-.5522847 0-1 .4477153-1 1v6h-6v-6c0-.5522847-.4477153-1-1-1zm9.3 18.7c-.1884143-.1846305-.296243-.4362307-.3-.7v-9h6v9c0 .5522847-.4477153 1-1 1s-1-.4477153-1-1v-6c0-.5522847-.4477153-1-1-1s-1 .4477153-1 1v6c-.0056201.4000752-.2491743.7582884-.6191515.910632-.3699773.1523435-.7951482.0694877-1.0808485-.210632zm-7.25 2.3h19.95c.9 0 1.22.41 3.2 2h-26.35c2.15-1.74 2.34-2 3.2-2zm-7 4h33.95c2.7614237 0 5 2.2385763 5 5h-44c0-2.7614237 2.23857625-5 5-5z"/><path id="Shape" d="m7 9h.65l3.9 3.12c.7091158.568911 1.5908771.879291 2.5.88h19.95c.9091229-.000709 1.7908842-.311089 2.5-.88l3.85-3.12h.65c3.8659932 0 7-3.13400675 7-7 0-1.1045695-.8954305-2-2-2h-44c-1.1045695 0-2 .8954305-2 2 0 3.86599325 3.13400675 7 7 7zm27 2h-19.95c-.9 0-1.22-.41-3.2-2h26.3c-2.15 1.74-2.34 2-3.15 2zm12-9c0 2.76142375-2.2385763 5-5 5h-34c-2.76142375 0-5-2.23857625-5-5z"/><path id="Shape" d="m7 17c0-.5522847-.44771525-1-1-1s-1 .4477153-1 1v5c0 .5522847.44771525 1 1 1s1-.4477153 1-1z"/><path id="Shape" d="m6 25c-.55228475 0-1 .4477153-1 1v17c0 .5522847.44771525 1 1 1s1-.4477153 1-1v-17c0-.5522847-.44771525-1-1-1z"/><path id="Shape" d="m43 17c0-.5522847-.4477153-1-1-1s-1 .4477153-1 1v5c0 .5522847.4477153 1 1 1s1-.4477153 1-1z"/><path id="Shape" d="m42 25c-.5522847 0-1 .4477153-1 1v17c0 .5522847.4477153 1 1 1s1-.4477153 1-1v-17c0-.5522847-.4477153-1-1-1z"/><path id="Shape" d="m6 5h3c.55228475 0 1-.44771525 1-1s-.44771525-1-1-1h-3c-.55228475 0-1 .44771525-1 1s.44771525 1 1 1z"/><path id="Shape" d="m13 5h18c.5522847 0 1-.44771525 1-1s-.4477153-1-1-1h-18c-.5522847 0-1 .44771525-1 1s.4477153 1 1 1z"/></g></svg>