<svg id="Capa_1" enable-background="new 0 0 512.004 512.004" height="512" viewBox="0 0 512.004 512.004" width="512" xmlns="http://www.w3.org/2000/svg"><g><path d="m500.999 141.637-79.999-22.13v-104.505c0-8.284-6.716-15-15-15h-391c-8.295 0-15.022 6.742-15 15.04l.477 179.237c.154 58.003 20.953 114.169 58.573 158.289 32.007 112.197 129.309 156.478 140.01 157.739 120.144 14.152 232.555-61.583 264.752-177.976l47.645-172.238c2.209-7.984-2.474-16.248-10.458-18.456zm-470.959-111.635h360.96v99.741 63.965c0 106.1-75.562 194.941-180.015 212.108-104.423-16.928-180.227-105.64-180.508-211.618zm404.858 294.331c-28.288 102.259-124.803 167.738-230.048 156.436-38.75-17.806-70.721-46.29-92.702-81.635 28.28 18.339 60.754 31.191 96.574 36.694 7.922 1.214 91.468-10.621 153.232-82.614 38.076-44.382 59.046-101.029 59.046-159.506v-43.074l57.544 15.918z"/><path d="m299.933 241.203h-178.866c-8.284 0-15 6.716-15 15 0 57.584 46.848 104.433 104.433 104.433s104.433-46.848 104.433-104.433c0-8.284-6.716-15-15-15zm-89.433 89.432c-35.904 0-65.954-25.557-72.914-59.433h145.828c-6.96 33.876-37.01 59.433-72.914 59.433z"/><path d="m195.301 168.181c5.952-40.534-25.705-77.18-66.801-77.18-41.137 0-72.747 36.685-66.801 77.18 1.082 7.363 7.398 12.82 14.841 12.82h103.92c7.442.001 13.759-5.456 14.841-12.82zm-103.548-17.179c3.485-17.095 18.637-30 36.747-30s33.262 12.905 36.747 30z"/><path d="m241.54 181.002h103.92c7.442 0 13.759-5.457 14.841-12.82 5.952-40.534-25.705-77.18-66.801-77.18-41.137 0-72.747 36.685-66.801 77.18 1.082 7.363 7.399 12.82 14.841 12.82zm51.96-60c18.109 0 33.262 12.905 36.747 30h-73.493c3.484-17.096 18.637-30 36.746-30z"/></g></svg>