<svg id="Layer_1" enable-background="new 0 0 512 512" height="512" viewBox="0 0 512 512" width="512" xmlns="http://www.w3.org/2000/svg"><g><path d="m497 337.4h-17.134v-49.267c0-8.284-6.716-15-15-15h-28.053l70.794-70.793c2.813-2.813 4.394-6.628 4.394-10.606 0-3.821-1.466-7.514-4.085-10.296-.104-.11-.209-.219-.316-.326-40.835-40.836-104.548-45.187-150.265-13.057l-7.183-14.367c-20.146-40.288-88.115-137.62-222.685-137.62-5.199 0-10.027 2.692-12.76 7.114s-2.981 9.944-.657 14.594l48.066 96.132c-25.329-14.036-53.795-21.44-82.849-21.44-5.199 0-10.027 2.692-12.76 7.114s-2.981 9.944-.657 14.594l31.999 63.998c-25.329-14.035-53.795-21.44-82.849-21.44-5.199 0-10.027 2.692-12.76 7.114-2.733 4.422-2.981 9.944-.657 14.594l38.286 76.572c-4.612 2.559-7.736 7.473-7.736 13.12v49.266h-17.133c-8.284 0-15 6.716-15 15s6.716 15 15 15h482c8.284 0 15-6.716 15-15s-6.716-15-15-15zm-22.119-144.76-80.494 80.494h-102.174l70.802-70.81c30.402-30.402 77.845-33.627 111.866-9.684zm-151.562-25.536 10.829 21.662-74.039 74.045-107.658-215.317c95.144 10.91 148.99 75.858 170.868 119.61zm-117.962 53.286 26.372 52.744h-62.859l-64.179-128.358c28.429 5.207 74.868 24.009 100.666 75.614zm-70.717 52.743h-62.169l-32.046-64.091c18.534 3.395 64.36 16.171 94.215 64.091zm-72.507 64.267v-34.267h387.733v34.267z"/><path d="m15 431.667h32.133c8.284 0 15-6.716 15-15s-6.716-15-15-15h-32.133c-8.284 0-15 6.716-15 15s6.716 15 15 15z"/><path d="m497 465.933h-32.134c-8.284 0-15 6.716-15 15s6.716 15 15 15h32.134c8.284 0 15-6.716 15-15s-6.716-15-15-15z"/><path d="m288.134 431.667h32.133c8.284 0 15-6.716 15-15s-6.716-15-15-15h-32.133c-8.284 0-15 6.716-15 15s6.716 15 15 15z"/><path d="m223.867 465.933h-32.133c-8.284 0-15 6.716-15 15s6.716 15 15 15h32.133c8.284 0 15-6.716 15-15s-6.716-15-15-15z"/><path d="m223.867 401.667h-112.467c-8.284 0-15 6.716-15 15s6.716 15 15 15h112.467c8.284 0 15-6.716 15-15s-6.716-15-15-15z"/><path d="m400.6 465.933h-112.466c-8.284 0-15 6.716-15 15s6.716 15 15 15h112.466c8.284 0 15-6.716 15-15s-6.716-15-15-15z"/><path d="m497 401.667h-112.467c-8.284 0-15 6.716-15 15s6.716 15 15 15h112.467c8.284 0 15-6.716 15-15s-6.716-15-15-15z"/><path d="m127.467 465.933h-112.467c-8.284 0-15 6.716-15 15s6.716 15 15 15h112.467c8.284 0 15-6.716 15-15s-6.716-15-15-15z"/></g></svg>