<svg height="512pt" viewBox="0 0 512 512.00056" width="512pt" xmlns="http://www.w3.org/2000/svg"><path d="m505.105469 129.492188-122.5625-122.597657c-5.269531-5.265625-13.554688-7.898437-20.621094-6.539062-5.652344 1.082031-10.148437 4.609375-12.320313 9.65625-5.410156 12.488281-10.066406 36.085937-14.992187 61.070312-5.945313 30.136719-14.085937 71.414063-22.390625 79.71875l-29.378906 29.378907-16.746094-16.746094 7.542969-7.542969c3.933593-3.933594 3.933593-10.308594 0-14.242187-3.929688-3.933594-10.308594-3.933594-14.242188 0l-29.332031 29.332031c-3.933594 3.929687-3.933594 10.308593 0 14.242187 1.96875 1.964844 4.542969 2.949219 7.121094 2.949219s5.15625-.984375 7.121094-2.949219l7.546874-7.546875 16.742188 16.746094-48.695312 48.699219-16.730469-16.734375 7.554687-7.554688c3.933594-3.933593 3.933594-10.3125 0-14.246093-3.929687-3.933594-10.308594-3.933594-14.242187 0l-14.667969 14.671874c-.003906.003907-.007812.003907-.011719.007813-.003906.003906-.003906.007813-.007812.011719l-14.644531 14.640625c-3.929688 3.933593-3.929688 10.3125 0 14.242187 1.96875 1.96875 4.546874 2.953125 7.125 2.953125 2.574218 0 5.152343-.984375 7.121093-2.953125l7.527344-7.53125 16.734375 16.734375-35.082031 35.082031-12.6875 12.714844c-.300781.300782-.59375.605469-.890625.910156l-16.753906-16.753906 7.542968-7.546875c3.933594-3.933593 3.933594-10.308593 0-14.242187s-10.308594-3.933594-14.242187 0l-14.375 14.375c-.101563.09375-.207031.179687-.308594.277344-.097656.097656-.179687.203124-.273437.304687l-14.375 14.375c-3.933594 3.933594-3.933594 10.308594 0 14.242187 1.96875 1.96875 4.542968 2.949219 7.121093 2.949219s5.15625-.980469 7.121094-2.949219l7.546875-7.546874 16.765625 16.769531-89.121094 89.050781c-.734375.738281-1.402343 1.425781-2.015625 2.066406-.367187-.375-.753906-.765625-1.160156-1.171875-6.601562-6.601562-17.386719-6.621093-24.074219 0l-21.425781 21.429688c-3.203125 3.203125-4.96875 7.472656-4.96875 12.023437 0 4.550782 1.765625 8.820313 4.96875 12.027344l51.292969 51.289062c3.304687 3.304688 7.652343 4.960938 12.015625 4.960938 4.355468 0 8.71875-1.652344 12.0625-4.957031l21.421875-21.425781c3.207031-3.207032 4.96875-7.476563 4.96875-12.027344 0-4.546875-1.765625-8.816406-4.960938-12.011719-.414062-.417969-.816406-.816406-1.199219-1.195313.640626-.613281 1.328126-1.285156 2.0625-2.023437 7.5625-7.542969 15.113282-15.097656 22.667969-22.652344 4.003907-4.003906 8.011719-8.003906 12.015625-12.007812 5.054688 10.707031 11.964844 20.558593 20.566406 29.15625 19.644532 19.660156 45.863282 30.484375 73.832032 30.484375h.015625c27.964843-.003906 54.1875-10.828125 73.832031-30.472656l9.40625-9.378907c3.941406-3.929687 3.949219-10.304687.023438-14.246093-3.925782-3.9375-10.300782-3.949219-14.242188-.019532l-9.417969 9.390625c-15.851562 15.847657-37.019531 24.582031-59.605469 24.582031-.003906 0-.007812 0-.011718 0-22.582032 0-43.746094-8.730468-59.589844-24.585937-10.054688-10.046875-17.234375-22.234375-21.152344-35.566406-.042968-.167969-.085937-.335938-.136718-.503907-2.167969-7.542968-3.304688-15.441406-3.304688-23.53125 0-22.585937 8.734375-43.75 24.601562-59.609374l12.6875-12.714844 105.125-105.125c.003907-.007813.007813-.011719.011719-.015625.007813-.003907.007813-.007813.015625-.011719l36.484375-36.488281c11.761719-11.757813 18.6875-43.292969 27.910157-90.0625 4.183593-21.214844 8.5-43.097657 12.75-54.539063.464843.183594.914062.429688 1.179687.695313l122.566406 122.597656c.265625.265625.511719.714844.695313 1.179687-11.402344 4.226563-33.261719 8.539063-54.449219 12.71875-46.816406 9.238282-78.386719 16.171876-90.148437 27.9375l-20.925782 20.921876c-.308594.269531-.601562.5625-.875.875l-124.179687 124.15625c-21.527344 21.566406-21.527344 56.65625.011719 78.234374 21.566406 21.53125 56.65625 21.53125 78.226562-.007812l57.699219-57.722656c10.414062-10.414063 16.148437-24.304688 16.148437-39.113282 0-14.8125-5.738281-28.699218-16.144531-39.085937-9.15625-9.171875-21.015625-14.714844-33.828125-15.910156l32.382812-32.378907c11.351563 4.175782 21.746094 10.808594 30.328126 19.394532 15.847656 15.847656 24.574218 37.011718 24.574218 59.601562s-8.726562 43.753906-24.574218 59.601563l-3.03125 3.03125c-3.933594 3.933593-3.933594 10.3125 0 14.246093 3.929687 3.933594 10.308593 3.933594 14.242187 0l3.03125-3.03125c19.652344-19.652343 30.476563-45.878906 30.476563-73.847656s-10.824219-54.195312-30.472657-73.84375c-8.484375-8.484375-18.394531-15.433594-29.195312-20.527344l10.347656-10.347656c8.3125-8.3125 49.636719-16.464844 79.808594-22.417968 26.03125-5.136719 48.511719-9.570313 60.957031-14.957032 5.066406-2.183594 8.597656-6.675781 9.679688-12.328125 1.355468-7.070312-1.273438-15.355469-6.542969-20.621093zm-394.046875 291.972656c-7.550782 7.546875-15.097656 15.097656-22.667969 22.65625-1.585937 1.585937-2.910156 2.824218-4.082031 3.910156-3.453125 3.21875-7.023438 6.546875-7.078125 12.121094-.050781 5.625 3.496093 9.050781 7.25 12.679687.253906.246094.523437.503907.804687.777344l-16.984375 16.984375-46.871093-46.871094 16.980468-16.980468c.265625.273437.519532.535156.761719.785156 3.605469 3.742187 7.015625 7.277344 12.574219 7.277344h.128906c5.585938-.054688 8.917969-3.648438 12.140625-7.121094 1.085937-1.171875 2.3125-2.496094 3.878906-4.066406l60.710938-60.664063c-.800781 5.265625-1.214844 10.628906-1.214844 16.058594 0 8.019531.894531 15.890625 2.625 23.507812-6.320313 6.3125-12.640625 12.628907-18.957031 18.945313zm211.621094-133.394532c6.605468 6.59375 10.242187 15.417969 10.242187 24.84375 0 9.425782-3.640625 18.257813-10.25 24.871094l-57.691406 57.71875c-13.714844 13.695313-36.039063 13.695313-49.746094.011719-13.695313-13.71875-13.695313-36.039063-.003906-49.753906l57.359375-57.347657c.121094-.113281.246094-.226562.367187-.347656 6.605469-6.613281 15.441407-10.25 24.867188-10.25s18.25 3.636719 24.855469 10.253906zm0 0"/><path d="m346.574219 396.042969c-4.34375-3.476563-10.683594-2.773438-14.15625 1.570312l-.113281.144531c-3.476563 4.34375-2.769532 10.679688 1.574218 14.15625 1.855469 1.484376 4.078125 2.207032 6.285156 2.207032 2.953126 0 5.878907-1.292969 7.867188-3.78125l.113281-.140625c3.476563-4.34375 2.769531-10.683594-1.570312-14.15625zm0 0"/></svg>