<?xml version="1.0" encoding="iso-8859-1"?>
<!-- Generator: Adobe Illustrator 18.0.0, SVG Export Plug-In . SVG Version: 6.00 Build 0)  -->
<!DOCTYPE svg PUBLIC "-//W3C//DTD SVG 1.1//EN" "http://www.w3.org/Graphics/SVG/1.1/DTD/svg11.dtd">
<svg version="1.1" id="Capa_1" xmlns="http://www.w3.org/2000/svg" xmlns:xlink="http://www.w3.org/1999/xlink" x="0px" y="0px"
	 viewBox="0 0 486.668 486.668" style="enable-background:new 0 0 486.668 486.668;" xml:space="preserve">
<g>
	<path d="M486.625,192.841c-0.072-1.279-0.465-2.556-1.221-3.702l-14.61-22.164c-0.013-0.019-0.028-0.036-0.041-0.055
		c-11.85-18.214-58.343-26.614-101.967-26.614c-26.694,0-51.887,3.067-70.938,8.637c-16.852,4.927-27.481,11.322-31.755,19.076
		l-13.92,21.121c-0.756,1.147-1.148,2.426-1.22,3.705c-0.011,0.122-0.079,1.011-0.027,1.562l3.887,41.114l-22.958-0.001
		l3.886-41.113c0.05-0.528-0.016-1.435-0.026-1.55c-0.068-1.284-0.461-2.566-1.22-3.717l-14.606-22.164
		c-0.014-0.02-0.029-0.038-0.043-0.058c-11.852-18.213-58.342-26.612-101.964-26.612c-26.695,0-51.889,3.067-70.939,8.637
		c-16.877,4.934-27.514,11.339-31.775,19.107L1.265,189.139c-0.761,1.154-1.154,2.441-1.221,3.729
		c-0.011,0.11-0.076,1.01-0.026,1.539c3.682,38.958,7.364,77.915,11.05,116.872c0.004,0.041,0.008,0.081,0.013,0.121
		c3.583,32.268,82.642,34.919,106.814,34.963c24.144-0.044,103.197-2.695,106.786-34.961c0.005-0.041,0.009-0.082,0.013-0.123
		l3.204-33.897h30.872l3.204,33.897c0.004,0.041,0.008,0.082,0.013,0.123c3.589,32.267,82.642,34.918,106.813,34.961
		c24.145-0.044,103.201-2.695,106.79-34.961c0.005-0.041,0.009-0.082,0.013-0.123c3.685-38.956,7.366-77.913,11.047-116.871
		C486.699,193.878,486.635,192.963,486.625,192.841z M376.286,331.274v-98.326c20.511-0.394,39.999-2.396,56.781-5.803l-6.352,99.15
		C413.723,328.962,396.946,330.868,376.286,331.274z M310.86,326.295l-6.352-99.15c16.781,3.407,36.269,5.41,56.777,5.803v98.326
		C340.627,330.867,323.85,328.96,310.86,326.295z M444.717,208.881c-20.179,5.899-47.145,9.148-75.931,9.148
		c-28.783,0-55.747-3.249-75.924-9.148c-16.927-4.949-24.608-10.593-26.464-14.066l3.548-5.383
		c15.479,15.57,58.393,22.792,98.84,22.792c26.695,0,51.89-3.067,70.941-8.637c13.096-3.829,22.427-8.545,27.945-14.095l3.508,5.322
		C469.326,198.288,461.642,203.933,444.717,208.881z M302.057,163.34c17.722-5.181,41.419-8.034,66.728-8.034
		c25.311,0,49.01,2.853,66.732,8.034c14.152,4.138,20.546,8.733,22.463,11.399c0.092,0.165,0.654,0.796,0.654,1.525
		c0,2.012-5.65,7.818-23.117,12.925c-17.722,5.181-41.421,8.034-66.732,8.034c-25.309,0-49.007-2.853-66.728-8.034
		c-17.465-5.106-23.115-10.913-23.115-12.925c0-0.729,0.556-1.354,0.646-1.516C281.498,172.084,287.891,167.482,302.057,163.34z
		 M123.098,331.319v-98.328c20.404-0.271,39.868-2.135,56.748-5.385l-6.354,99.156C160.351,329.28,143.581,331.031,123.098,331.319z
		 M57.636,325.803l-6.351-99.136c16.677,3.568,36.194,5.714,56.813,6.232v98.326C87.245,330.695,70.463,328.622,57.636,325.803z
		 M193.807,208.881c-20.178,5.899-47.142,9.148-75.925,9.148c-28.785,0-55.75-3.249-75.929-9.148
		c-16.927-4.949-24.609-10.594-26.463-14.067l3.548-5.383c15.479,15.571,58.395,22.793,98.844,22.793
		c26.695,0,51.889-3.067,70.939-8.637c13.095-3.828,22.424-8.544,27.942-14.093l3.506,5.32
		C218.416,198.288,210.733,203.932,193.807,208.881z M51.151,163.34c17.722-5.181,41.421-8.034,66.73-8.034
		c25.309,0,49.009,2.853,66.73,8.034c14.148,4.136,20.542,8.731,22.461,11.397c0.092,0.166,0.655,0.81,0.655,1.527
		c0,2.012-5.65,7.819-23.116,12.925c-17.722,5.181-41.421,8.034-66.73,8.034c-25.31,0-49.009-2.853-66.73-8.034
		c-17.467-5.107-23.084-10.913-23.117-12.925c-0.013-0.759,0.562-1.359,0.652-1.523C30.603,172.075,36.996,167.478,51.151,163.34z
		 M25.995,309.79c-2.985-31.546-5.967-63.093-8.948-94.641c5.157,2.79,11.479,5.328,18.957,7.606l6.324,98.728
		C31.836,317.67,26.434,313.374,25.995,309.79z M188.761,323.046l6.34-98.956c0.98-0.267,1.963-0.533,2.916-0.812
		c8.245-2.411,15.143-5.125,20.697-8.129l-8.946,94.641C209.265,313.874,202.337,318.883,188.761,323.046z M229.316,262.381
		l1.121-11.861l25.794,0.001l1.121,11.86H229.316z M276.9,309.788l-8.946-94.639c5.555,3.004,12.452,5.719,20.698,8.129
		c0.192,0.056,0.396,0.108,0.589,0.164l6.333,98.855C283.539,318.291,277.371,313.63,276.9,309.788z M460.677,309.788
		c-0.472,3.843-6.642,8.503-18.675,12.509l6.333-98.855c0.194-0.056,0.397-0.108,0.591-0.165c8.245-2.411,15.142-5.124,20.696-8.128
		C466.641,246.696,463.66,278.243,460.677,309.788z"/>
</g>
<g>
</g>
<g>
</g>
<g>
</g>
<g>
</g>
<g>
</g>
<g>
</g>
<g>
</g>
<g>
</g>
<g>
</g>
<g>
</g>
<g>
</g>
<g>
</g>
<g>
</g>
<g>
</g>
<g>
</g>
</svg>
